<svg xmlns="http://www.w3.org/2000/svg" width="32" height="32" fill="none" xmlns:v="https://vecta.io/nano"><g clip-path="url(#A)"><rect width="32" height="32" rx="16" fill="#333"/><path fill-rule="evenodd" d="M13.151 10.435c.256-1.023-.459-1.897-1.562-1.897-.728 0-1.306.351-1.533.928a1.47 1.47 0 0 0 1.169 2.033c.924.155 1.729-.291 1.926-1.064zm4.324 3.449l.061-.064h0l.034-.037c.757-1.106 1.843-1.427 3.107-1.237 1.461.226 2.397 1.243 2.636 2.8a7.75 7.75 0 0 1 .084 1.112v1.164l.007 3.492c0 .172-.042.226-.221.226a83.73 83.73 0 0 0-2.445 0c-.179 0-.227-.048-.221-.226v-4.346c0-.327-.024-.654-.113-.975-.298-1.023-1.461-1.379-2.296-.702-.447.369-.626.85-.62 1.421l.001 2.73h0l-.001 1.366-.002.153h0l.008.382c.012.155-.054.184-.191.184a172.6 172.6 0 0 0-2.493 0c-.149 0-.203-.03-.203-.196l.018-3.692h0l-.012-4.542c0-.167.036-.214.203-.214h2.493c.149 0 .191.042.185.19a10.83 10.83 0 0 0-.018.827v.184zm-4.466 3.14l.006 4.097c0 .172-.036.232-.221.226-.823-.012-1.646-.006-2.469 0-.155 0-.203-.036-.203-.196l-.006-8.258c0-.143.036-.19.185-.19h2.517c.167 0 .191.059.191.208v4.114z" fill="#fff"/></g><defs><clipPath id="A"><path fill="#fff" d="M0 0h32v32H0z"/></clipPath></defs></svg>