<svg xmlns="http://www.w3.org/2000/svg" width="32" height="32" fill="none" xmlns:v="https://vecta.io/nano"><g clip-path="url(#A)"><rect width="32" height="32" rx="16" fill="#333"/><path d="M23.253 12.66l.009.436c0 4.446-3.507 9.567-9.915 9.567-1.976 0-3.808-.554-5.351-1.508a7.73 7.73 0 0 0 .841.042 7.15 7.15 0 0 0 4.325-1.435c-1.531-.03-2.817-.999-3.256-2.332.536.076 1.019.076 1.571-.061-.788-.155-1.496-.568-2.005-1.17a3.29 3.29 0 0 1-.784-2.131v-.042a3.58 3.58 0 0 0 1.571.427 3.41 3.41 0 0 1-1.14-1.211c-.271-.488-.413-1.033-.413-1.587a3.21 3.21 0 0 1 .474-1.696c.875 1.04 1.966 1.89 3.204 2.496a10.17 10.17 0 0 0 3.979 1.02c-.493-2.286 1.276-4.137 3.403-4.137 1.004 0 1.907.406 2.544 1.06.787-.142 1.54-.427 2.211-.809-.26.778-.806 1.435-1.531 1.85.703-.073 1.38-.261 2.007-.524-.474.672-1.066 1.269-1.747 1.744z" fill="#fff"/></g><defs><clipPath id="A"><path fill="#fff" d="M0 0h32v32H0z"/></clipPath></defs></svg>