<svg xmlns="http://www.w3.org/2000/svg" width="272" height="320" fill="none" xmlns:v="https://vecta.io/nano"><mask id="A" maskUnits="userSpaceOnUse" x="0" y="0" width="272" height="320" mask-type="alpha"><path d="M0 50C0 22.386 22.386 0 50 0h172c27.614 0 50 22.386 50 50v220c0 27.614-22.386 50-50 50H50c-27.614 0-50-22.386-50-50V50z" fill="#c4c4c4"/></mask><g mask="url(#A)"><path fill="#faa881" d="M-19-23h304v360H-19z"/><path d="M12.85 230.393c-87.601 21.627-174.924-27.367-195.178-109.408S-148.094-45.061-60.492-66.687L256.718-145C297.566 20.46 188.053 187.139 12.85 230.393z" fill="#f26c74"/><path d="M298.197 289.365c51.069 74.388 35.937 173.367-33.73 221.195S96.995 536.944 45.925 462.556L-139 193.191c140.503-96.459 335.059-52.602 437.197 96.174z" fill="#7675fd"/></g></svg>