<svg xmlns="http://www.w3.org/2000/svg" width="543" height="293" fill="#222433" xmlns:v="https://vecta.io/nano"><path d="M83.662.19h1.016c.762 0 2.031.677 3.809 2.031-6.602 49.639-9.902 90.941-9.902 123.906-.169 0-.254.931-.254 2.793-.931.846-1.947 1.269-3.047 1.269h-.762c-3.174 0-5.036-3.046-5.586-9.14v-.508c0-26.533 3.216-65.973 9.648-118.32C79.896.868 81.589.19 83.662.19zm-45.957 4.57c2.243 0 4.951 1.947 8.125 5.84 1.523 0 2.878 5.501 4.063 16.504 4.909 34.447 9.818 59.414 14.727 74.903.677 2.497 1.016 4.105 1.016 4.824-1.016 1.016-1.862 1.523-2.539 1.523-4.401 0-7.871-5.67-10.41-17.011C49.3 78.055 45.153 57.404 40.244 29.39l-.508-.254c-.508.804-3.978 17.731-10.41 50.781-1.693 9.648-3.301 21.243-4.824 34.785-1.058 1.185-2.158 1.777-3.301 1.777h-.508c-3.512 0-5.628-1.523-6.348-4.57 0-5.374 3.639-26.11 10.918-62.207L33.389 6.03c1.354-.677 2.793-1.1 4.316-1.27z"/><path d="M122.319 46.973c4.571 0 6.856.846 6.856 2.539.169.296.254.635.254 1.016v.762c0 .508-.762 3.724-2.285 9.648l-6.602 28.945h.254c5.713-4.57 11.553-10.579 17.519-18.027 6.814-8.167 11.722-14.769 14.727-19.805h.254c.508 1.143.762 2.412.762 3.809 0 9.902-10.918 27.083-32.754 51.543-.847.508-1.693.762-2.539.762h-.254c-3.513 0-6.052-3.131-7.617-9.395 0-1.82-.085-3.089-.254-3.809 0-2.581.846-8.506 2.539-17.773-.466.169-3.851 5.247-10.157 15.234-4.951 7.913-8.336 12.653-10.156 14.219l-.762.507h-1.777c-5.628 0-9.606-3.554-11.933-10.664-.169-1.143-.254-2.074-.254-2.793v-1.777c0-6.136 3.216-15.531 9.648-28.184 6.263-10.664 12.188-15.996 17.774-15.996 4.951 0 9.436 1.947 13.457 5.84h.253c1.566-4.401 2.582-6.601 3.047-6.601zM88.804 92.676v.762c12.441-14.642 20.481-25.221 24.121-31.738-.677-3.597-1.354-5.797-2.031-6.601-2.836 1.058-6.56 4.697-11.172 10.918-3.597 5.163-6.813 11.849-9.648 20.059-.846 2.793-1.269 4.993-1.269 6.602z"/><path d="M165.547 0c3.385 0 5.078 1.523 5.078 4.57 0 .635-.592 4.951-1.777 12.949l.507.254h9.903c3.893.339 5.84 2.116 5.84 5.332-2.539 1.693-6.856 2.539-12.95 2.539 0 .169-1.946.423-5.839.762-1.566 3.259-3.174 11.299-4.825 24.121-1.692 14.769-2.539 27.38-2.539 37.832v1.523c0 .889.339 1.481 1.016 1.777h.254c3.724 0 11.426-7.787 23.105-23.359 4.782-6.855 7.998-12.187 9.649-15.996h.508v3.809c0 9.86-6.517 22.471-19.551 37.832-6.856 7.364-11.511 11.765-13.965 13.203h-.254c-6.982 0-10.96-5.078-11.934-15.234l-.253-8.379c0-13.457 1.946-31.315 5.839-53.574v-1.523c-3.935.508-7.321.762-10.156.762-1.904 0-3.089-1.354-3.555-4.062v-.508c0-1.693.931-2.539 2.793-2.539 9.141-1.566 13.711-3.004 13.711-4.316.804-2.243 2.074-7.236 3.809-14.98C160.469.931 161.738 0 163.77 0h1.777z"/><path d="M200.459 40.117c3.047.55 4.57 1.058 4.57 1.523v.254c0 3.216-2.031 11.172-6.093 23.867-2.201 10.495-3.301 17.689-3.301 21.582v3.808c.169 2.878.508 4.317 1.015 4.317.635 0 1.82-2.116 3.555-6.348 7.109-14.684 13.626-26.449 19.551-35.293.846-1.947 2.2-6.009 4.062-12.187.889-.846 1.651-1.27 2.286-1.27h.253c1.947 0 4.317 1.693 7.11 5.078 0 1.608-1.354 6.094-4.063 13.457-3.216 16.335-4.824 28.692-4.824 37.07l.762.508h.254c3.47-2.37 7.617-6.771 12.441-13.203l23.359-31.23h.508v.762c-1.946 10.325-10.579 25.221-25.898 44.688-6.644 7.279-11.553 10.918-14.727 10.918-3.343 0-5.289-3.301-5.84-9.902v-.762c0-2.201.17-8.21.508-18.027v-.254h-.254c-3.554 6.559-7.448 14.853-11.679 24.882-1.82 2.37-3.682 3.555-5.586 3.555h-.508c-4.147 0-7.787-4.062-10.918-12.187-.677-3.301-1.016-5.925-1.016-7.871v-1.27c0-10.579 2.37-23.952 7.11-40.117 1.777-4.232 4.231-6.348 7.363-6.348z"/><path d="M257.905 39.609h.762c2.37 0 3.555.508 3.555 1.523.804 5.501 1.206 9.246 1.206 11.235.592 4.063 2.687 6.242 6.284 6.538 6.263.889 10.241 1.566 11.934 2.031.846.931 1.269 1.947 1.269 3.047v.508c0 .973-1.693 7.152-5.078 18.535-.677 3.512-1.016 6.644-1.016 9.395v.508c0 2.962.677 5.078 2.032 6.348h.761c5.586 0 13.796-10.918 24.629-32.754 3.893-8.548 5.84-13.457 5.84-14.726h.762c.677 1.523 1.015 2.878 1.015 4.063v2.031c0 9.056-4.739 21.159-14.218 36.309-6.475 8.464-12.399 12.696-17.774 12.696h-1.015c-4.444 0-8.083-2.54-10.918-7.618-.508-2.751-.762-5.205-.762-7.363v-5.84c0-4.274 1.354-10.537 4.062-18.789-4.358 0-9.394-1.777-15.107-5.332-3.047-3.258-4.57-7.321-4.57-12.187v-1.27c0-5.417.846-8.125 2.539-8.125.804-.508 2.073-.762 3.808-.762z"/><path d="M331.03 38.594h1.778c3.343 0 5.882 2.539 7.617 7.617l.508 3.809c0 7.067-3.47 15.531-10.411 25.391-2.242 2.37-5.797 3.555-10.664 3.555l-13.457-.254c-1.523 3.174-2.285 6.813-2.285 10.918 0 4.02.677 8.252 2.031 12.695h.508c13.88 0 31.061-15.573 51.543-46.718 1.693-2.116 2.539-3.385 2.539-3.809h.508c.339 1.1.508 1.862.508 2.285v1.016c0 9.267-7.533 22.048-22.598 38.34l-9.648 7.871c-7.11 4.57-12.865 6.855-17.266 6.855h-2.285c-6.517 0-11.341-3.724-14.473-11.172-.846-3.978-1.269-7.363-1.269-10.156 0-13.922 7.702-28.057 23.105-42.402 5.756-3.893 10.326-5.84 13.711-5.84zm-21.582 34.785v.254h1.016c6.686 0 12.272-2.962 16.758-8.887 4.062-7.617 6.093-14.388 6.093-20.312-7.913 3.851-15.615 12.568-23.105 26.152-.508 1.143-.762 2.074-.762 2.793zM45.195 173.402c4.909 1.058 7.363 2.328 7.363 3.809v.762c0 5.501-3.893 21.159-11.68 46.972v.762c.212.846.465 1.27.762 1.27 2.031 0 7.279-5.84 15.742-17.52 5.586-8.294 11.172-17.096 16.758-26.406h.254c.339 1.269.508 2.454.508 3.554v2.032c0 12.441-10.41 29.453-31.23 51.035l-6.348 5.586h-.254c-2.751 0-5.29-1.185-7.617-3.555 0-12.484 2.285-28.564 6.855-48.242.169-.846.254-1.947.254-3.301v-.254c-6.517 6.136-11.087 11.807-13.711 17.012-3.047 5.247-6.94 13.965-11.68 26.152-1.65 3.174-2.92 4.951-3.809 5.332H6.6c-4.399-1.269-6.6-4.401-6.6-9.394 0-9.437 3.385-27.126 10.156-53.067 1.735-.507 3.343-.761 4.824-.761 3.047.211 4.57 1.565 4.57 4.062 0 2.243-1.608 9.183-4.824 20.82-1.524 5.925-2.285 10.495-2.285 13.711v.254h.254c8.337-16.25 15.446-27.76 21.328-34.531 3.893-4.062 7.617-6.094 11.172-6.094z"/><path d="M92.612 169.594h1.777c3.343 0 5.882 2.539 7.617 7.617l.508 3.809c0 7.067-3.47 15.53-10.41 25.39-2.243 2.37-5.797 3.555-10.664 3.555l-13.457-.254c-1.523 3.174-2.285 6.813-2.285 10.918 0 4.02.677 8.252 2.031 12.695h.508c13.88 0 31.061-15.573 51.543-46.719 1.693-2.115 2.539-3.385 2.539-3.808h.508c.339 1.1.508 1.862.508 2.285v1.016c0 9.267-7.533 22.047-22.598 38.34l-9.648 7.871c-7.109 4.57-12.865 6.855-17.266 6.855h-2.285c-6.517 0-11.341-3.724-14.473-11.172-.846-3.978-1.269-7.363-1.269-10.156 0-13.923 7.702-28.057 23.105-42.402 5.755-3.894 10.326-5.84 13.711-5.84zM71.03 204.379v.254h1.016c6.686 0 12.272-2.962 16.758-8.887 4.063-7.617 6.094-14.388 6.094-20.312-7.913 3.851-15.615 12.568-23.105 26.152-.508 1.143-.762 2.074-.762 2.793z"/><path d="M139.585 169.594h1.777c3.343 0 5.882 2.539 7.617 7.617l.508 3.809c0 7.067-3.47 15.53-10.41 25.39-2.243 2.37-5.797 3.555-10.664 3.555l-13.457-.254c-1.523 3.174-2.285 6.813-2.285 10.918 0 4.02.677 8.252 2.031 12.695h.508c13.88 0 31.061-15.573 51.543-46.719 1.693-2.115 2.539-3.385 2.539-3.808h.508c.338 1.1.508 1.862.508 2.285v1.016c0 9.267-7.533 22.047-22.598 38.34l-9.648 7.871c-7.11 4.57-12.865 6.855-17.266 6.855h-2.285c-6.517 0-11.341-3.724-14.473-11.172-.846-3.978-1.269-7.363-1.269-10.156 0-13.923 7.701-28.057 23.105-42.402 5.755-3.894 10.326-5.84 13.711-5.84zm-21.582 34.785v.254h1.016c6.686 0 12.272-2.962 16.757-8.887 4.063-7.617 6.094-14.388 6.094-20.312-7.913 3.851-15.615 12.568-23.105 26.152-.508 1.143-.762 2.074-.762 2.793z"/><path d="M203.569 131h1.016c3.893 0 5.84 2.031 5.84 6.094 0 2.285-3.132 16.419-9.395 42.402-3.047 13.753-4.57 25.179-4.57 34.277v4.825c0 .846.085 2.116.254 3.808 6.728-5.078 13.838-12.357 21.328-21.836 5.29-7.024 9.268-12.949 11.934-17.773h.761c.508 1.015.762 1.693.762 2.031v1.27c-1.185 10.156-10.833 26.406-28.945 48.75-2.201 2.539-4.571 3.808-7.11 3.808-5.247 0-7.871-7.024-7.871-21.074v-3.301c0-1.439.085-3.724.254-6.855-.889.254-4.359 6.178-10.41 17.773-4.613 9.479-9.268 14.219-13.965 14.219h-.762c-4.485 0-7.447-4.316-8.886-12.949-.17-.974-.254-2.328-.254-4.063 0-14.092 5.078-28.987 15.234-44.687 2.666-3.724 5.544-5.586 8.633-5.586 5.755 0 9.564 2.2 11.426 6.601.338 2.243.846 4.021 1.523 5.332h.254l7.109-31.484c2.201-14.388 4.148-21.582 5.84-21.582zm-42.148 93.945c0 1.735.338 3.851 1.016 6.348h.507c3.767-3.216 6.39-6.855 7.871-10.918 8.845-16.25 13.838-25.814 14.981-28.691v-.508c-2.708-.931-4.063-3.216-4.063-6.856 0-3.724-.254-5.586-.761-5.586-3.216 0-7.787 6.687-13.711 20.059-3.893 10.283-5.84 19.001-5.84 26.152z"/><path d="M236.577 165.531h1.27c6.22 0 9.944 2.539 11.172 7.617-1.143 1.566-2.497 2.497-4.063 2.793-.931-.169-1.693-.253-2.285-.253-2.793 0-4.74.93-5.84 2.792-1.862 1.609-2.793 3.132-2.793 4.571v.508c0 1.65 1.1 2.666 3.301 3.046 1.946 0 6.686 2.455 14.219 7.364 11.637-7.279 22.555-10.918 32.754-10.918 0-.169.592-.254 1.777-.254l.254.508-20.313 10.41c-3.978 2.37-7.532 5.078-10.664 8.125-1.354 1.439-2.031 5.078-2.031 10.918-2.031 7.913-4.232 14.007-6.602 18.281-4.782 8.802-9.606 13.203-14.472 13.203-4.232 0-7.702-2.793-10.41-8.379v-.761c0-7.406 5.755-17.478 17.265-30.215 3.047-2.243 4.571-4.528 4.571-6.856 0-2.92-3.809-5.289-11.426-7.109-5.586-2.497-8.379-6.136-8.379-10.918v-1.016c0-4.316 3.216-8.717 9.648-13.203l3.047-.254zm-3.808 66.27c3.385-2.793 5.839-7.279 7.363-13.457-3.978 4.485-6.432 8.971-7.363 13.457zm100.039-56.875c2.877 0 4.316 1.692 4.316 5.078v.762c-4.147 23.232-6.263 38.805-6.348 46.718h.254c.677 0 2.201-2.454 4.571-7.363 5.628-11.045 13.499-22.301 23.613-33.769 6.136-7.618 10.876-11.426 14.219-11.426 1.65 0 3.004 1.015 4.062 3.047-3.893 16.842-6.771 28.099-8.633 33.769h.254c.889 0 12.653-9.648 35.293-28.945h.254c0 8.336-12.611 22.301-37.832 41.894-1.396 1.058-2.92 4.19-4.57 9.395-7.956 18.07-17.097 34.32-27.422 48.75-4.994 6.602-9.564 9.902-13.711 9.902h-1.016c-3.004 0-5.713-1.608-8.125-4.824 0-9.818 10.749-28.776 32.246-56.875.212-.55 4.359-5.205 12.442-13.965 1.946-3.174 3.554-8.082 4.824-14.726.508-1.905.762-3.767.762-5.586-.804.084-3.682 3.978-8.633 11.679-4.147 5.459-9.479 15.192-15.996 29.2-2.751 4.062-5.29 6.093-7.617 6.093-5.756-1.565-8.633-4.358-8.633-8.379-.212 0-.466-1.523-.762-4.57l.254-1.269v-1.778c0-1.227.762-8.252 2.285-21.074 1.904-20.143 3.682-30.215 5.332-30.215.677-1.015 2.116-1.523 4.317-1.523zm-8.887 104.863h.254c3.428-3.174 6.644-7.067 9.648-11.68 9.691-15.149 15.7-25.729 18.028-31.738-3.47 2.074-7.702 6.644-12.696 13.711-10.156 16.673-15.234 26.576-15.234 29.707z"/><path d="M437.29 166.801c7.067.55 13.669 3.343 19.805 8.379 3.047 3.47 4.57 7.363 4.57 11.679 0 9.776-6.855 22.217-20.566 37.325-8.845 9.648-17.308 14.472-25.391 14.472-7.533 0-13.457-4.655-17.773-13.965-1.693-4.781-2.539-9.352-2.539-13.711 0-5.459 1.608-13.33 4.824-23.613.169-.592.254-.931.254-1.015l-.254-.508c0-1.905 3.047-7.152 9.14-15.742 1.989-1.862 3.513-2.793 4.571-2.793h1.269l7.11 2.285h1.015c6.686-1.862 11.341-2.793 13.965-2.793zm-32.754 48.496v2.539c0 9.648 2.708 14.473 8.125 14.473 4.57 0 12.442-5.925 23.613-17.774 10.664-13.372 15.997-23.952 15.997-31.738v-.508c0-3.851-1.862-6.305-5.586-7.363-.678-.339-1.608-.508-2.793-.508h-2.539c-4.232 0-11.596 1.608-22.09 4.824-3.936 1.904-6.475 4.274-7.617 7.11-4.74 11.129-7.11 20.778-7.11 28.945zm76.743-44.18c3.047.55 4.571 1.058 4.571 1.524v.254c0 3.216-2.032 11.171-6.094 23.867-2.201 10.495-3.301 17.689-3.301 21.582v3.808c.169 2.878.508 4.317 1.016 4.317.634 0 1.819-2.116 3.554-6.348 7.11-14.684 13.627-26.448 19.551-35.293.847-1.946 2.201-6.009 4.063-12.187.888-.847 1.65-1.27 2.285-1.27h.254c1.946 0 4.316 1.693 7.109 5.078 0 1.608-1.354 6.094-4.062 13.457-3.217 16.335-4.825 28.692-4.825 37.071l.762.507h.254c3.47-2.369 7.617-6.77 12.441-13.203l23.36-31.23h.508v.761c-1.947 10.326-10.58 25.222-25.899 44.688-6.644 7.279-11.553 10.918-14.726 10.918-3.343 0-5.29-3.301-5.84-9.902v-.762c0-2.201.169-8.21.508-18.027v-.254h-.254c-3.555 6.559-7.448 14.853-11.68 24.882-1.82 2.37-3.682 3.555-5.586 3.555h-.508c-4.147 0-7.786-4.062-10.918-12.187-.677-3.301-1.015-5.925-1.015-7.871v-1.27c0-10.579 2.369-23.952 7.109-40.117 1.777-4.232 4.232-6.348 7.363-6.348zm-29.154 85.792c21.3.4 32 2 32 4.9v.7c0 1.8-25.2 1.3-34.3 1.3s-27.5-13.8-37-13.8-16.7 16.3-32.9 16.3-30.6-10-40.6-12.4c-18.5-4.4-44.2 11.4-44.2 8.1v-4.7c0-2.4 25-11.4 42-10.9 5.6-.2 22.4 13.5 43.1 13.2 7.4-.1 24.4-16.1 32.4-16.2 16.6-.2 24.6 13.6 39.5 13.5z"/></svg>