<svg xmlns="http://www.w3.org/2000/svg" xmlns:xlink="http://www.w3.org/1999/xlink" width="459" height="565" fill="none" xmlns:v="https://vecta.io/nano"><g fill="#f2726c"><path d="M252.994 397.351c.943 0 1.887-.363 2.54-1.089a3.59 3.59 0 0 0 0-5.152l-36.287-36.287a3.59 3.59 0 1 0-5.153 5.152l36.287 36.287c.726.726 1.669 1.089 2.613 1.089z"/><use xlink:href="#M"/></g><path d="M119.025 372.896v162.638c0 7.113 2.54 13.717 6.822 18.797 2.032 2.468 4.5 4.645 7.258 6.314 2.249 1.379 4.644 2.468 7.185 3.193 2.322.654 4.717 1.089 7.257 1.162h.943c16.184 0 29.466-13.282 29.466-29.466V372.896c0-16.257-13.282-29.466-29.466-29.466-8.128 0-15.458 3.339-20.828 8.637-5.298 5.37-8.637 12.7-8.637 20.829z" fill="#222433"/><path opacity=".25" d="M125.852 373.983V554.33c2.033 2.468 4.5 4.645 7.258 6.314V373.983h-7.258z" fill="url(#B)"/><path opacity=".5" d="M140.287 373.984v189.854c2.323.653 4.718 1.088 7.258 1.161V373.984h-7.258z" fill="url(#C)"/><g fill="#32535d"><use xlink:href="#N"/><use xlink:href="#N" y="-21.916"/></g><path d="M119.026 392.925c72.138 0 174.541-72.719 184.919-161.115 10.813-91.879-55.157-161.187-127.731-161.187v133.319c0 28.376-5.225 56.535-15.603 82.952l-41.585 106.031z" fill="#222433"/><path d="M248.207 304.749c-2.685 6.023-7.257 10.668-12.773 13.353-1.669-5.878-1.379-12.41 1.307-18.434s7.257-10.668 12.773-13.353c1.669 5.878 1.306 12.337-1.307 18.434z" fill="url(#D)"/><path d="M213.588 304.749c-2.685 6.023-7.257 10.668-12.773 13.353-1.669-5.878-1.379-12.41 1.307-18.434s7.257-10.668 12.773-13.353c1.669 5.878 1.379 12.337-1.307 18.434z" fill="url(#E)"/><path d="M223.603 326.522c-2.686 6.023-7.258 10.668-12.774 13.353-1.669-5.878-1.378-12.41 1.307-18.433s7.257-10.669 12.773-13.354c1.669 5.878 1.379 12.338-1.306 18.434z" fill="url(#F)"/><use xlink:href="#O" fill="#25386d"/><use xlink:href="#O" fill="#222433" fill-opacity=".3"/><path d="M107.193 306.127a173.74 173.74 0 0 0 57.914-89.92l1.67-6.822c1.088-4.645 1.959-9.434 2.685-14.297-26.272 21.99-48.044 50.729-57.551 86.218-2.178 8.201-3.774 16.475-4.718 24.821z" fill="url(#G)"/><path d="M285.729 198.717c0 32.368-24.531 58.567-54.794 58.567s-54.794-26.199-54.794-58.567V81.51c61.035 0 109.588 52.471 109.588 117.207z" fill="#f26c74"/><path d="M176.212 81.51v88.976c0 24.602 16.909 44.488 37.811 44.488s37.811-19.958 37.811-44.488c0-47.537-31.352-86.364-71.413-88.904-1.452 0-2.83-.073-4.209-.073z" fill="#f8ea8c"/><path d="M199.075 131.731c-10.301 0-18.651-8.351-18.651-18.652s8.35-18.651 18.651-18.651 18.652 8.35 18.652 18.651-8.351 18.652-18.652 18.652z" fill="#43a3a8"/><path d="M199.076 122.806c-5.371 0-9.725-4.354-9.725-9.725s4.354-9.725 9.725-9.725 9.725 4.354 9.725 9.725-4.354 9.725-9.725 9.725z" fill="url(#H)"/><path d="M11.979 115.909c13.717.944 24.603 12.048 25.256 25.764 11.176-3.483 23.006-5.298 35.271-5.298h103.709V70.623H90.214c-10.233 0-20.103 1.669-29.247 4.862-20.756 7.112-38.174 21.627-48.988 40.424z" fill="#f8ea8c"/><path d="M30.631 160.833h145.584v-24.458H72.579c-12.265 0-24.095 1.815-35.271 5.298v1.379a27.07 27.07 0 0 1-6.677 17.781z" fill="#f26a6c"/><path d="M157.052 70.623h19.16v65.752h-19.16V70.623z" fill="url(#I)"/><path d="M157.052 136.375h19.16v24.53h-19.16v-24.53z" fill="#000"/><path d="M.005 160.833c11.031-8.418 23.659-15.022 37.231-19.232-.653-13.789-11.539-24.82-25.256-25.764C4.359 129.119.005 144.504.005 160.833z" fill="#25316d"/><path d="M.005 160.834h30.554c3.048-3.483 5.225-7.765 6.169-12.483.363-1.741.508-3.483.508-5.37v-1.379A122.66 122.66 0 0 0 .005 160.834z" fill="#222433"/><path opacity=".7" d="M122.435 136.375h34.618V70.623h-38.754c1.814 7.548 3.483 16.184 4.427 25.764 1.524 15.386.943 28.957-.291 39.988z" fill="url(#J)"/><mask id="A" maskUnits="userSpaceOnUse" x="191" y="106" width="13" height="13" mask-type="alpha"><path d="M197.841 118.233c-3.327 0-6.024-2.696-6.024-6.023s2.697-6.024 6.024-6.024 6.024 2.697 6.024 6.024-2.697 6.023-6.024 6.023z" fill="url(#K)"/></mask><g mask="url(#A)"><path d="M197.84 118.231c-3.327 0-6.024-2.697-6.024-6.023s2.697-6.024 6.024-6.024 6.023 2.697 6.023 6.024-2.697 6.023-6.023 6.023z" fill="url(#L)"/></g><g fill="#f2726c"><path d="M200.452 397.352c.944 0 1.887-.363 2.54-1.089a3.59 3.59 0 0 0 0-5.153l-24.167-24.167a3.59 3.59 0 1 0-5.153 5.153l24.168 24.167a3.68 3.68 0 0 0 2.612 1.089z"/><use xlink:href="#M" x="-52.546" y="0.001"/></g><path d="M42.785 401.998h309.166c2.976 0 5.443-2.467 5.443-5.443s-2.467-5.443-5.443-5.443H42.785c-2.976 0-5.443 2.467-5.443 5.443s2.467 5.443 5.443 5.443z" fill="#a86e58"/><path d="M227.812 397.353a3.59 3.59 0 0 0 3.628-3.628 17.35 17.35 0 0 0-17.345-17.346 3.629 3.629 0 1 0 0 7.258c5.588 0 10.088 4.499 10.088 10.088a3.64 3.64 0 0 0 3.629 3.628zm52.541.003a3.59 3.59 0 0 0 3.628-3.629c0-9.579-7.765-17.345-17.345-17.345a3.629 3.629 0 1 0 0 7.258c5.588 0 10.088 4.499 10.088 10.087a3.64 3.64 0 0 0 3.629 3.629zM265.118 48.584s14.701-5.994 19.119-18.308-3.119-26.287-3.119-26.287-14.7 5.994-19.119 18.308 3.119 26.287 3.119 26.287z" fill="#f2726c"/><path d="M357.611 229.266s11.88 12.532 26.408 12.413 26.201-12.844 26.201-12.844-11.88-12.532-26.408-12.413-26.201 12.844-26.201 12.844z" fill="#faa881"/><path d="M316.549 383.779s15.688 2.476 26.488-5.728 12.619-23.982 12.619-23.982-15.688-2.477-26.488 5.727-12.619 23.983-12.619 23.983z" fill="#7675fd"/><path d="M277.968 406.708s-2.578 11.207 2.838 19.223 16.776 9.808 16.776 9.808 2.578-11.207-2.838-19.223-16.776-9.808-16.776-9.808z" fill="#43a3a8"/><path d="M334.346 99.047s37.951 7.762 68.601-10.22 42.392-54.896 42.392-54.896-37.952-7.762-68.602 10.219-42.391 54.896-42.391 54.896z" fill="#7675fd"/><defs><linearGradient id="B" x1="129.467" y1="555.917" x2="129.467" y2="394.218" xlink:href="#P"><stop stop-color="#24c667"/><stop offset="1" stop-color="#244c6b"/></linearGradient><linearGradient id="C" x1="143.916" y1="601.15" x2="143.916" y2="420.93" xlink:href="#P"><stop stop-color="#24c667"/><stop offset="1" stop-color="#244c6b"/></linearGradient><linearGradient id="D" x1="232.716" y1="324.123" x2="246.01" y2="294.104" xlink:href="#P"><stop offset=".531" stop-color="#244c6b"/><stop offset="1" stop-color="#24236d"/></linearGradient><linearGradient id="E" x1="198.105" y1="324.123" x2="211.399" y2="294.104" xlink:href="#P"><stop offset=".531" stop-color="#244c6b"/><stop offset="1" stop-color="#24236d"/></linearGradient><linearGradient id="F" x1="208.175" y1="345.879" x2="221.469" y2="315.861" xlink:href="#P"><stop offset=".531" stop-color="#244c6b"/><stop offset="1" stop-color="#24236d"/></linearGradient><linearGradient id="G" x1="179.176" y1="164.387" x2="122.568" y2="282.683" xlink:href="#P"><stop stop-color="#7675fd"/><stop offset="1" stop-color="#244c6b"/></linearGradient><linearGradient id="H" x1="204.36" y1="120.18" x2="193.353" y2="105.302" xlink:href="#P"><stop/><stop offset="1" stop-color="#24236d"/></linearGradient><linearGradient id="I" x1="166.621" y1="133.424" x2="166.621" y2="73.905" xlink:href="#P"><stop stop-color="#24236d"/><stop offset="1" stop-color="#244c6b"/></linearGradient><linearGradient id="J" x1="137.647" y1="134.875" x2="137.647" y2="79.065" xlink:href="#P"><stop stop-color="#ee2a7b"/><stop offset="1" stop-color="#f15665"/></linearGradient><linearGradient id="K" x1="199.614" y1="117.007" x2="195.982" y2="107.32" xlink:href="#P"><stop offset=".004"/><stop offset=".999" stop-color="#fff"/></linearGradient><linearGradient id="L" x1="199.613" y1="117.004" x2="195.98" y2="107.317" xlink:href="#P"><stop offset=".004"/><stop offset=".999" stop-color="#c6c6ff"/></linearGradient><path id="M" d="M252.997 397.352a3.59 3.59 0 0 0 3.629-3.629 10.07 10.07 0 1 1 20.176 0 3.59 3.59 0 1 0 7.257 0c0-9.58-7.765-17.345-17.345-17.345s-17.345 7.765-17.345 17.345a3.59 3.59 0 0 0 3.628 3.629z"/><path id="N" d="M148.488 550.483c19.087 0 34.545-15.531 34.545-34.545a3.59 3.59 0 1 0-7.257 0c0 15.095-12.265 27.288-27.288 27.288-15.096 0-27.288-12.265-27.288-27.288a3.59 3.59 0 1 0-7.257 0c0 19.014 15.53 34.545 34.545 34.545z"/><path id="O" d="M106.031 326.518c0 3.556.072 7.112.363 10.668.508 8.346 1.596 16.692 3.266 24.966l.87 4.137c.581 2.467 8.709 26.417 8.492 26.634 29.247-22.57 51.6-54.576 61.833-93.04l1.669-6.822c2.177-9.507 3.629-19.377 4.282-29.465 1.742-25.256-1.379-51.383-10.596-73.881a222.07 222.07 0 0 0-6.749 5.444c-26.272 21.99-48.044 50.729-57.552 86.218-2.177 8.128-3.773 16.401-4.717 24.748-.798 6.822-1.161 13.571-1.161 20.393z"/><linearGradient id="P" gradientUnits="userSpaceOnUse"/></defs></svg>