<svg xmlns="http://www.w3.org/2000/svg" xmlns:xlink="http://www.w3.org/1999/xlink" width="283" height="565" fill="none" xmlns:v="https://vecta.io/nano"><g fill="#f2726c"><path d="M252.989 397.351c.944 0 1.887-.363 2.541-1.089a3.59 3.59 0 0 0 0-5.152l-36.288-36.287a3.59 3.59 0 1 0-5.152 5.152l36.287 36.287a3.68 3.68 0 0 0 2.612 1.089z"/><path d="M252.993 397.352a3.59 3.59 0 0 0 3.629-3.629c0-5.588 4.499-10.088 10.087-10.088s10.088 4.5 10.088 10.088a3.59 3.59 0 1 0 7.258 0 17.35 17.35 0 0 0-17.346-17.345 17.35 17.35 0 0 0-17.345 17.345 3.59 3.59 0 0 0 3.629 3.629z"/></g><path d="M119.021 372.896v162.638c0 7.113 2.54 13.717 6.822 18.797 2.032 2.468 4.499 4.645 7.257 6.314 2.25 1.379 4.645 2.468 7.185 3.193 2.323.654 4.717 1.089 7.258 1.162h.943c16.184 0 29.465-13.282 29.465-29.466V372.896c0-16.257-13.281-29.466-29.465-29.466-8.128 0-15.458 3.339-20.829 8.637-5.298 5.37-8.636 12.7-8.636 20.829z" fill="#222433"/><path opacity=".25" d="M125.848 373.983V554.33c2.032 2.468 4.5 4.645 7.257 6.314V373.983h-7.257z" fill="url(#B)"/><path opacity=".5" d="M140.284 373.984v189.854c2.322.653 4.717 1.088 7.257 1.161V373.984h-7.257z" fill="url(#C)"/><g fill="#32535d"><use xlink:href="#M"/><use xlink:href="#M" y="-21.916"/></g><path d="M119.021 392.925c72.139 0 174.541-72.719 184.919-161.115 10.814-91.879-55.156-161.187-127.73-161.187v133.319c0 28.376-5.226 56.535-15.604 82.952l-41.585 106.031z" fill="#222433"/><path d="M248.202 304.749c-2.685 6.023-7.257 10.668-12.773 13.353-1.669-5.878-1.379-12.41 1.307-18.434s7.257-10.668 12.773-13.353c1.669 5.878 1.306 12.337-1.307 18.434z" fill="url(#D)"/><path d="M213.583 304.749c-2.685 6.023-7.257 10.668-12.773 13.353-1.669-5.878-1.378-12.41 1.307-18.434s7.257-10.668 12.773-13.353c1.669 5.878 1.379 12.337-1.307 18.434z" fill="url(#E)"/><path d="M223.597 326.522c-2.685 6.023-7.257 10.668-12.773 13.353-1.669-5.878-1.379-12.41 1.306-18.433s7.258-10.669 12.774-13.354c1.669 5.878 1.378 12.338-1.307 18.434z" fill="url(#F)"/><use xlink:href="#N" fill="#25386d"/><use xlink:href="#N" fill="#222433" fill-opacity=".3"/><path d="M107.189 306.127c27.288-22.353 48.117-53.197 57.915-89.92l1.669-6.822c1.088-4.645 1.959-9.434 2.685-14.297-26.272 21.99-48.044 50.729-57.551 86.218-2.178 8.201-3.774 16.475-4.718 24.821z" fill="url(#G)"/><path d="M285.725 198.717c0 32.368-24.53 58.567-54.794 58.567s-54.793-26.199-54.793-58.567V81.51c61.034 0 109.587 52.471 109.587 117.207z" fill="#f26c74"/><path d="M176.207 81.51v88.976c0 24.602 16.91 44.488 37.811 44.488s37.811-19.958 37.811-44.488c0-47.537-31.352-86.364-71.413-88.904-1.451 0-2.83-.073-4.209-.073z" fill="#f8ea8c"/><path d="M199.071 131.731c-10.301 0-18.651-8.351-18.651-18.652s8.35-18.651 18.651-18.651 18.652 8.351 18.652 18.652-8.351 18.652-18.652 18.652z" fill="#43a3a8"/><path d="M199.072 122.806c-5.371 0-9.725-4.354-9.725-9.725s4.354-9.725 9.725-9.725 9.725 4.354 9.725 9.725-4.354 9.725-9.725 9.725z" fill="url(#H)"/><path d="M11.976 115.909c13.717.944 24.603 12.048 25.256 25.764 11.176-3.483 23.006-5.298 35.271-5.298h103.709V70.623H90.211c-10.233 0-20.103 1.669-29.247 4.862-20.756 7.112-38.174 21.627-48.988 40.424z" fill="#f8ea8c"/><path d="M30.627 160.833h145.584v-24.458H72.575c-12.265 0-24.095 1.815-35.271 5.298v1.379a27.07 27.07 0 0 1-6.677 17.781z" fill="#f26a6c"/><path d="M157.048 70.623h19.16v65.752h-19.16V70.623z" fill="url(#I)"/><path d="M157.048 136.375h19.16v24.53h-19.16v-24.53z" fill="#000"/><path d="M0 160.833c11.031-8.418 23.659-15.022 37.231-19.232-.653-13.789-11.539-24.82-25.256-25.764C4.355 129.119 0 144.504 0 160.833z" fill="#25316d"/><path d="M0 160.834h30.554c3.048-3.483 5.225-7.765 6.169-12.483.363-1.741.508-3.483.508-5.37v-1.379A122.66 122.66 0 0 0 0 160.834z" fill="#222433"/><path opacity=".7" d="M122.431 136.375h34.618V70.623h-38.755c1.815 7.548 3.484 16.184 4.427 25.764 1.524 15.386.944 28.957-.29 39.988z" fill="url(#J)"/><mask id="A" maskUnits="userSpaceOnUse" x="191" y="106" width="13" height="13" mask-type="alpha"><path d="M197.837 118.233c-3.327 0-6.024-2.696-6.024-6.023s2.697-6.024 6.024-6.024 6.023 2.697 6.023 6.024-2.697 6.023-6.023 6.023z" fill="url(#K)"/></mask><g mask="url(#A)"><path d="M197.835 118.231c-3.327 0-6.024-2.697-6.024-6.023s2.697-6.024 6.024-6.024 6.023 2.697 6.023 6.024-2.696 6.023-6.023 6.023z" fill="url(#L)"/></g><g fill="#f2726c"><path d="M200.447 397.352c.944 0 1.887-.363 2.541-1.089a3.59 3.59 0 0 0 0-5.153l-24.168-24.167a3.59 3.59 0 1 0-5.152 5.153l24.167 24.167a3.68 3.68 0 0 0 2.612 1.089z"/><path d="M200.447 397.353a3.59 3.59 0 0 0 3.629-3.629c0-5.588 4.499-10.088 10.088-10.088s10.087 4.5 10.087 10.088a3.59 3.59 0 1 0 7.258 0c0-9.58-7.766-17.345-17.345-17.345a17.35 17.35 0 0 0-17.346 17.345 3.59 3.59 0 0 0 3.629 3.629z"/></g><path d="M42.78 401.998h309.167c2.975 0 5.443-2.467 5.443-5.443s-2.468-5.443-5.443-5.443H42.78c-2.975 0-5.443 2.467-5.443 5.443s2.468 5.443 5.443 5.443z" fill="#a86e58"/><path d="M227.807 397.353a3.59 3.59 0 0 0 3.629-3.628 17.35 17.35 0 0 0-17.346-17.346 3.629 3.629 0 1 0 0 7.258c5.589 0 10.088 4.499 10.088 10.088a3.64 3.64 0 0 0 3.629 3.628zm52.542.003a3.59 3.59 0 0 0 3.629-3.629 17.35 17.35 0 0 0-17.346-17.345 3.629 3.629 0 1 0 0 7.258c5.589 0 10.088 4.499 10.088 10.087a3.64 3.64 0 0 0 3.629 3.629zM265.114 48.584s14.7-5.994 19.118-18.308-3.118-26.287-3.118-26.287-14.701 5.994-19.119 18.308 3.119 26.287 3.119 26.287z" fill="#f2726c"/><path d="M277.964 406.708s-2.578 11.207 2.838 19.223 16.775 9.808 16.775 9.808 2.578-11.207-2.838-19.223-16.775-9.808-16.775-9.808z" fill="#43a3a8"/><defs><linearGradient id="B" x1="129.462" y1="555.917" x2="129.462" y2="394.218" xlink:href="#O"><stop stop-color="#24c667"/><stop offset="1" stop-color="#244c6b"/></linearGradient><linearGradient id="C" x1="143.912" y1="601.15" x2="143.912" y2="420.93" xlink:href="#O"><stop stop-color="#24c667"/><stop offset="1" stop-color="#244c6b"/></linearGradient><linearGradient id="D" x1="232.711" y1="324.123" x2="246.005" y2="294.104" xlink:href="#O"><stop offset=".531" stop-color="#244c6b"/><stop offset="1" stop-color="#24236d"/></linearGradient><linearGradient id="E" x1="198.1" y1="324.123" x2="211.394" y2="294.104" xlink:href="#O"><stop offset=".531" stop-color="#244c6b"/><stop offset="1" stop-color="#24236d"/></linearGradient><linearGradient id="F" x1="208.17" y1="345.879" x2="221.464" y2="315.861" xlink:href="#O"><stop offset=".531" stop-color="#244c6b"/><stop offset="1" stop-color="#24236d"/></linearGradient><linearGradient id="G" x1="179.172" y1="164.387" x2="122.564" y2="282.683" xlink:href="#O"><stop stop-color="#7675fd"/><stop offset="1" stop-color="#244c6b"/></linearGradient><linearGradient id="H" x1="204.356" y1="120.18" x2="193.349" y2="105.302" xlink:href="#O"><stop/><stop offset="1" stop-color="#24236d"/></linearGradient><linearGradient id="I" x1="166.617" y1="133.424" x2="166.617" y2="73.905" xlink:href="#O"><stop stop-color="#24236d"/><stop offset="1" stop-color="#244c6b"/></linearGradient><linearGradient id="J" x1="137.642" y1="134.875" x2="137.642" y2="79.065" xlink:href="#O"><stop stop-color="#ee2a7b"/><stop offset="1" stop-color="#f15665"/></linearGradient><linearGradient id="K" x1="199.61" y1="117.007" x2="195.977" y2="107.32" xlink:href="#O"><stop offset=".004"/><stop offset=".999" stop-color="#fff"/></linearGradient><linearGradient id="L" x1="199.608" y1="117.004" x2="195.975" y2="107.317" xlink:href="#O"><stop offset=".004"/><stop offset=".999" stop-color="#c6c6ff"/></linearGradient><path id="M" d="M148.483 550.483c19.087 0 34.545-15.531 34.545-34.545a3.59 3.59 0 1 0-7.257 0c0 15.095-12.265 27.288-27.288 27.288-15.095 0-27.288-12.265-27.288-27.288a3.59 3.59 0 1 0-7.257 0c0 19.014 15.531 34.545 34.545 34.545z"/><path id="N" d="M106.026 326.518c0 3.556.073 7.112.363 10.668a182.31 182.31 0 0 0 3.266 24.966l.871 4.137c.581 2.467 8.709 26.417 8.491 26.634 29.248-22.57 51.601-54.576 61.834-93.04l1.669-6.822c2.177-9.507 3.628-19.377 4.282-29.465 1.741-25.256-1.379-51.383-10.596-73.881a222.1 222.1 0 0 0-6.75 5.444c-26.272 21.99-48.044 50.729-57.551 86.218-2.177 8.128-3.774 16.401-4.717 24.748-.799 6.822-1.162 13.571-1.162 20.393z"/><linearGradient id="O" gradientUnits="userSpaceOnUse"/></defs></svg>