<svg xmlns="http://www.w3.org/2000/svg" xmlns:xlink="http://www.w3.org/1999/xlink" width="112" height="39" fill="none" xmlns:v="https://vecta.io/nano"><g fill="#000"><path d="M59.119 26h4.392l-4.272-6.024c2.664-.672 3.888-2.712 3.888-5.04 0-2.736-1.728-5.472-5.568-5.472h-6.768V26h3.768v-5.808h.744L59.119 26zm-4.56-13.248h2.496c1.536 0 2.28 1.176 2.28 2.28s-.72 2.184-2.376 2.184h-2.4v-4.464z"/><use xlink:href="#B"/><use xlink:href="#B" x="13.828"/><path d="M99.696 14.816h-2.352v-4.032h-3.552v4.032h-2.04v2.664h2.04V26h3.552v-8.52h2.352v-2.664zm11.568 0h-9.84v3.288h4.656l-4.968 5.28V26h10.152v-3.288h-5.04l5.04-5.256v-2.64z"/></g><path d="M9.071 32.128s7.281-7.542 6.652-16.141-8.932-15-8.932-15S-.49 8.528.14 17.128s8.932 15 8.932 15z" fill="#7675fd"/><path d="M8.969 32.349s9.46-1.004 14.125-7.373 2.771-15.691 2.771-15.691-9.46 1.004-14.125 7.373-2.771 15.691-2.771 15.691z" fill="#f26c74"/><path d="M9.537 32.477s7.924 3.558 15.417 1.072 11.719-10.075 11.719-10.075-7.924-3.558-15.417-1.072S9.537 32.477 9.537 32.477z" fill="#faa881"/><defs ><path id="B" d="M70.619 26.216c3.192 0 6.096-2.304 6.096-5.832 0-3.552-2.904-5.856-6.096-5.856s-6.072 2.304-6.072 5.856c0 3.528 2.88 5.832 6.072 5.832zm0-3.288c-1.368 0-2.472-1.008-2.472-2.544s1.104-2.568 2.472-2.568 2.472 1.032 2.472 2.568-1.104 2.544-2.472 2.544z"/></defs></svg>